<?xml version="1.0" encoding="utf-8"?>
<!-- Generator: Adobe Illustrator 23.0.3, SVG Export Plug-In . SVG Version: 6.00 Build 0)  -->
<svg version="1.1" id="Шар_1" xmlns="http://www.w3.org/2000/svg" xmlns:xlink="http://www.w3.org/1999/xlink" x="0px" y="0px"
	 viewBox="0 0 330.79 93.4" style="enable-background:new 0 0 330.79 93.4;" xml:space="preserve">
<style type="text/css">
	.st0{fill:#388D9B;}
	.st1{fill:#77BDC1;}
	.st2{fill:#163649;}
</style>
<g>
	<path class="st0" d="M105.2,35.3c-1.35-10.12-19.6-16.35-15.08-16.95c15.2-2.03,35.68,3.36,37.03,13.48"/>
	<path class="st0" d="M157.13,62.43c-19.73-5.32-84.2-10.28-104.9-17.18c-5.62-1.87-6.85-3.24-2.66-7.43
		c0,0,126.56-37.55,184.83-34.57c11.45,0.59,21.56-4.95,27.04-2.71c17.22,7.02,69.04,38.18,69.04,43.56
		c0,5.46-47.63,30.99-87.5,32.29C234.78,76.66,162.85,63.97,157.13,62.43z"/>
	<path class="st1" d="M48.13,43.83c20.74,6.79,89.28,13.28,109,18.6c5.72,1.54,77.65,14.23,85.84,13.96
		c39.88-1.3,87.5-26.83,87.5-32.29c0,0-23.69,8.3-61-3.68c-6.09-1.96-17.97,13.52-26.19,14.23c-14.92,1.29-50.6,3.36-83.14,0
		C150.64,53.67,48.13,43.83,48.13,43.83z"/>
	<path class="st0" d="M211.63,75.5c-1.54,4.01-14.52,14.3-21.51,17.25c-3.3,1.39-9.97,0.17-10.16-0.08
		c-0.33-0.44,5.05-2.4,5.48-8.65c0.11-1.63-1.86-7.47,0.32-12.1c4.32-9.18,14.66-21.75,17.69-22.3c8.51-1.55,9.15-3.63,11.22-1.62
		C215.99,49.27,215.21,66.18,211.63,75.5z"/>
	<path class="st0" d="M50.89,38.72c-1.06-2.88-19.52-10.15-17.89-9.5C45.81,34.32,8.36,21.8,8.36,21.8s9.96,6.56,12.11,9.99
		c2.44,3.91,5.26,7.71,10.07,9.95C38.08,45.26,51.78,41.13,50.89,38.72z"/>
	<path class="st0" d="M55.02,39.95c0,2.71-8.52,7.27-20.91,11.1C18.8,55.79,0,67.58,0,67.58s6.65-6.64,11.46-12.24
		c3.51-4.09,5.13-7.28,6.94-8.64c2.97-2.24,8.7-4.45,14.86-5.16C43.82,40.33,55.02,36.95,55.02,39.95z"/>
	<path class="st1" d="M252.69,48.29c-0.74-5.01-2.63-9.25-9.1-10.8c-6.42-1.53-11.95,4.33-11.95,9.68s5.35,9.68,11.95,9.68
		C250.19,56.84,253.15,51.37,252.69,48.29z"/>
	<g>
		<g>
			<path class="st2" d="M243.9,49.66c3.22,0,3.22-5,0-5C240.68,44.66,240.68,49.66,243.9,49.66L243.9,49.66z"/>
		</g>
	</g>
	<g>
		<g>
			<path class="st2" d="M251.84,49.78c3-0.99,5.81-2.38,8.6-3.86c2.44-1.3,5.63-3.85,8.43-4.22c3.23-0.43,8.11,1.71,11.34,2.31
				c3.98,0.74,7.98,1.37,12,1.91c11.84,1.59,26,3.9,37.72,0.43c1.54-0.46,0.88-2.87-0.66-2.41c-5.64,1.67-11.87,1.46-17.68,1.23
				c-8.29-0.32-16.57-1.25-24.76-2.55c-3.9-0.62-7.79-1.33-11.65-2.17c-2.25-0.49-4.66-1.54-6.96-1.17
				c-2.29,0.37-4.68,2.13-6.67,3.2c-3.36,1.82-6.7,3.67-10.35,4.88C249.66,47.87,250.31,50.28,251.84,49.78L251.84,49.78z"/>
		</g>
	</g>
</g>
</svg>
