<?xml version="1.0" encoding="utf-8"?>
<!-- Generator: Adobe Illustrator 23.0.3, SVG Export Plug-In . SVG Version: 6.00 Build 0)  -->
<svg version="1.1" id="Шар_1" xmlns="http://www.w3.org/2000/svg" xmlns:xlink="http://www.w3.org/1999/xlink" x="0px" y="0px"
	 viewBox="0 0 62.14 34.16" style="enable-background:new 0 0 62.14 34.16;" xml:space="preserve">
<style type="text/css">
	.st0{fill:#CFE8E2;}
	.st1{fill:none;}
	.st2{font-family:'UbuntuMono-Bold';}
	.st3{font-size:11px;}
</style>
<g>
	<g>
		<g>
			<path class="st0" d="M0.09,25.58c2.25-0.07,5.18,1.71,5.25,4.08s-2.73,4.43-4.98,4.5c-0.67,0.02,2.42-2,2.34-4.37
				S-0.58,25.6,0.09,25.58z"/>
			<ellipse class="st0" cx="11.54" cy="29.87" rx="7.4" ry="3.57"/>
		</g>
		<g>
			<path class="st0" d="M22.15,25.58c2.25-0.07,5.18,1.71,5.25,4.08c0.07,2.37-2.73,4.43-4.98,4.5c-0.67,0.02,2.42-2,2.34-4.37
				C24.69,27.42,21.49,25.6,22.15,25.58z"/>
			<ellipse class="st0" cx="33.6" cy="29.87" rx="7.4" ry="3.57"/>
		</g>
		<g>
			<path class="st0" d="M0.09,13.6c2.25-0.07,5.18,1.71,5.25,4.08s-2.73,4.43-4.98,4.5c-0.67,0.02,2.42-2,2.34-4.37
				S-0.58,13.62,0.09,13.6z"/>
			<ellipse class="st0" cx="11.54" cy="17.89" rx="7.4" ry="3.57"/>
		</g>
		<g>
			<path class="st0" d="M22.15,13.6c2.25-0.07,5.18,1.71,5.25,4.08c0.07,2.37-2.73,4.43-4.98,4.5c-0.67,0.02,2.42-2,2.34-4.37
				C24.69,15.44,21.49,13.62,22.15,13.6z"/>
			<ellipse class="st0" cx="33.6" cy="17.89" rx="7.4" ry="3.57"/>
		</g>
		<g>
			<path class="st0" d="M43.29,25.58c2.25-0.07,5.18,1.71,5.25,4.08c0.07,2.37-2.73,4.43-4.98,4.5c-0.67,0.02,2.42-2,2.34-4.37
				S42.63,25.6,43.29,25.58z"/>
			<ellipse class="st0" cx="54.74" cy="29.87" rx="7.4" ry="3.57"/>
		</g>
		<g>
			<path class="st0" d="M43.29,13.6c2.25-0.07,5.18,1.71,5.25,4.08c0.07,2.37-2.73,4.43-4.98,4.5c-0.67,0.02,2.42-2,2.34-4.37
				S42.63,13.62,43.29,13.6z"/>
			<ellipse class="st0" cx="54.74" cy="17.89" rx="7.4" ry="3.57"/>
		</g>
	</g>
	<rect x="15.35" y="1.68" class="st1" width="36.51" height="14.2"/>
	<text transform="matrix(1 0 0 1 15.3478 9.3117)" class="st0 st2 st3">10тис</text>
</g>
</svg>
