<?xml version="1.0" encoding="utf-8"?>
<!-- Generator: Adobe Illustrator 23.0.3, SVG Export Plug-In . SVG Version: 6.00 Build 0)  -->
<svg version="1.1" id="Шар_1" xmlns="http://www.w3.org/2000/svg" xmlns:xlink="http://www.w3.org/1999/xlink" x="0px" y="0px"
	 viewBox="0 0 211.28 96.28" style="enable-background:new 0 0 211.28 96.28;" xml:space="preserve">
<style type="text/css">
	.st0{fill:#798E5E;}
	.st1{fill:#0D5E5C;}
</style>
<g>
	<path class="st0" d="M184.15,68.61c0,0-58.14-15.98-74.36-15.11c-11.29,0.61-74.16,17.1-72.76,10.65c0,0,47.24-40.39,75.8-56.54
		c6.3-3.56,14.73-6.81,18.94-7.32c18.41-2.24,54.92,8.92,64.18,13.92c5.81,3.14,16.14,17.78,14.74,24.23
		C210.68,38.45,190.6,70.01,184.15,68.61z"/>
	<polygon class="st1" points="33.8,68.55 0,82.5 16.26,62.13 41.02,63.15 	"/>
	<path class="st1" d="M112.61,53.5C68.34,63.3,40.28,65.63,40.28,65.63s75.05-31.3,86.54-31.3c25.2,0,57.73,34.33,57.73,34.33
		S117.32,52.45,112.61,53.5z"/>
	<polygon class="st0" points="153.8,49 121.36,71.02 135.94,39.53 156.43,36.12 	"/>
	<polygon class="st0" points="38.57,75.49 8.49,96.28 21.97,66.5 41,63.3 	"/>
	<g>
		<g>
			<path class="st1" d="M192.28,34.59c0.11-0.11,0.23-0.23,0.34-0.34c0.93-0.93,0.99-2.62,0-3.54c-1-0.92-2.55-0.99-3.54,0
				c-0.11,0.11-0.23,0.23-0.34,0.34c-0.93,0.93-0.99,2.62,0,3.54C189.74,35.5,191.29,35.58,192.28,34.59L192.28,34.59z"/>
		</g>
	</g>
	<g>
		<g>
			<path class="st1" d="M209.14,37c-3.49,3.37-4.67,8.37-8.02,11.81c-3.06,3.14-9.57,5.8-14.01,6.29
				c-3.46,0.38-9.18,0.37-12.34-0.99c-4.45-1.91-0.95-6.75,0.08-10.05c0.48-1.54-1.93-2.2-2.41-0.66
				c-1.11,3.52-4.32,7.83-1.44,11.46c2.56,3.22,10.06,2.68,13.65,2.74c4.85,0.07,9.12-1.73,13.52-3.75
				C205,50.7,205.9,43.6,210.9,38.77C212.06,37.65,210.3,35.88,209.14,37L209.14,37z"/>
		</g>
	</g>
	<polygon class="st1" points="201.74,49.49 211.16,38.15 197.9,56.78 187.75,56.34 	"/>
</g>
</svg>
