<?xml version="1.0" encoding="utf-8"?>
<!-- Generator: Adobe Illustrator 23.0.3, SVG Export Plug-In . SVG Version: 6.00 Build 0)  -->
<svg version="1.1" id="Шар_1" xmlns="http://www.w3.org/2000/svg" xmlns:xlink="http://www.w3.org/1999/xlink" x="0px" y="0px"
	 viewBox="0 0 453.94 256.49" style="enable-background:new 0 0 453.94 256.49;" xml:space="preserve">
<style type="text/css">
	.st0{fill:#014560;}
	.st1{fill:#D6A44A;}
	.st2{fill:#186578;}
	.st3{fill:#28A5B2;}
	.st4{fill:#56B78B;}
	.st5{fill:#092F42;}
</style>
<rect x="0.2" y="0" class="st0" width="453.54" height="257.08"/>
<path class="st1" d="M103.52,211.29c5.28-3.53,11.14-6.03,16.69-9.08c-1.04-2.48-2.43-4.76-4.16-6.76c-0.1,0.23-0.26,0.42-0.51,0.57
	l-0.33,0.2c-4.76,5.13-9.51,10.26-14.33,15.32c-1.14,1.19-3.4-0.63-2.66-2.28c2.84-6.34,7.65-11.7,8.37-19.29
	c0.03-0.32,0.13-0.56,0.27-0.74c-3.41-1.11-7.02-1.24-10.54-0.42c-0.3,5.86-0.1,11.82,0.1,17.79c0.07,2.19-2.85,1.96-3.11-0.29
	c-0.59-5.12-1.35-10.22-2.72-15.28c-3.46,1.92-6.64,4.83-9.19,8.66l35.73,32.22c1.58-2.37,2.79-4.91,3.67-7.55
	c-4.29-1.36-8.56-2.81-12.79-4.64c-1.96-0.85-1.53-4.04,0.47-3.26c4.77,1.85,9.2,0.25,13.87,0.59c0.28-2.94,0.17-5.89-0.34-8.71
	c-5.26,2.95-10.89,5.34-17,6.23C103.31,214.8,102.14,212.22,103.52,211.29z"/>
<path class="st2" d="M116.67,256.49l-102.29-0.75V0.35L103.1,0c0,0-11.99,45.02-38.25,42.42c-10.87-1.07-21.36,48.7-20.05,75.17
	c1.05,21.38,16.63,48.94,36.96,50.93c8.95,0.87-2.1,41.57,16.35,42.62C119.58,212.38,116.67,256.49,116.67,256.49z"/>
<path class="st2" d="M278.69,256.49l150.17-0.74V0L365.8,0.2c0,0,1.12,61.39,9.92,64.02c10.99,3.28,27.55,1.76,26.03,17.53
	c-2.06,21.34-10.88,18.91-31.21,20.9c-8.95,0.88,2.84,108.24-15.61,107.28C282.14,206.13,278.69,256.49,278.69,256.49z"/>
<path class="st1" d="M59.54,104.3c6.3-0.74,12.64-0.73,18.96-1.12c0.23-1.69,0.07-3.35-0.54-4.93c-0.19,0.11-0.43,0.18-0.72,0.2
	l-0.39,0.03c-6.58,1.78-13.17,3.57-19.77,5.3c-1.56,0.41-2.71-1.2-1.29-1.97c5.45-2.96,12.19-4.86,16.35-9.07
	c0.18-0.18,0.38-0.29,0.58-0.36c-2.5-1.49-5.63-2.45-9.12-2.85c-2.99,3.3-5.58,6.8-8.17,10.29c-0.95,1.28-3.43,0.43-2.61-0.93
	c1.86-3.1,3.56-6.23,4.69-9.49c-3.95,0.25-8.1,1.15-12.14,2.73l16.61,27.42c2.49-0.98,4.75-2.15,6.75-3.45
	c-3.16-1.84-6.26-3.74-9.15-5.84c-1.34-0.97,0.53-2.71,1.93-1.77c3.35,2.25,8.02,2.42,11.98,3.77c1.61-1.63,2.88-3.35,3.74-5.11
	c-6.02,0.4-12.1,0.39-17.91-0.61C57.73,106.27,57.89,104.49,59.54,104.3z"/>
<path class="st1" d="M371.01,221.61c-1.79-12.7-2.07-25.51-3.15-38.27c-3.45-0.38-6.84,0.03-10.03,1.33
	c0.23,0.38,0.39,0.86,0.45,1.44l0.08,0.78c3.94,13.22,7.9,26.43,11.72,39.7c0.9,3.14-2.34,5.54-3.97,2.71
	c-6.28-10.87-10.48-24.39-19.25-32.59c-0.37-0.35-0.61-0.74-0.76-1.16c-2.92,5.12-4.74,11.5-5.39,18.57
	c6.88,5.87,14.13,10.93,21.38,16c2.66,1.85,1.03,6.9-1.79,5.32c-6.41-3.6-12.88-6.88-19.59-9c0.7,7.97,2.71,16.32,6.12,24.39
	l55.2-34.92c-2.11-4.99-4.6-9.49-7.35-13.46c-3.62,6.47-7.35,12.84-11.49,18.78c-1.92,2.76-5.55-0.93-3.7-3.81
	c4.44-6.89,4.57-16.32,7.14-24.4c-3.4-3.18-6.98-5.65-10.6-7.31c1.09,12.14,1.35,24.43-0.42,36.23
	C375.13,225.17,371.48,224.93,371.01,221.61z"/>
<g>
	<path class="st3" d="M203.97,207.87c2.14-0.68,5.45,0.24,6.16,2.5s-1.43,5.01-3.57,5.69c-0.64,0.2,1.79-2.58,1.07-4.84
		C206.91,208.95,203.33,208.07,203.97,207.87z"/>
	
		<ellipse transform="matrix(0.9625 -0.2712 0.2712 0.9625 -48.5503 66.4467)" class="st3" cx="216.15" cy="208.89" rx="7.4" ry="3.57"/>
</g>
<g>
	<path class="st3" d="M245.43,206.24c2.31-1.03,6.24-0.68,7.5,1.43c1.25,2.11-0.65,5.18-2.96,6.21c-0.69,0.31,1.53-2.84,0.28-4.95
		C248.99,206.81,244.75,206.55,245.43,206.24z"/>
	
		<ellipse transform="matrix(0.9343 -0.3565 0.3565 0.9343 -56.101 105.9851)" class="st3" cx="259.49" cy="205.2" rx="8.35" ry="3.65"/>
</g>
<g>
	<path class="st3" d="M338.9,19.17c2.16-0.62,5.44,0.38,6.09,2.66c0.65,2.28-1.56,4.97-3.72,5.59c-0.64,0.18,1.85-2.53,1.2-4.81
		S338.26,19.35,338.9,19.17z"/>
	
		<ellipse transform="matrix(0.9694 -0.2455 0.2455 0.9694 5.7083 86.8215)" class="st3" cx="351.05" cy="20.52" rx="7.4" ry="3.57"/>
</g>
<g>
	<path class="st3" d="M362.06,26.69c2.26-1.41,6.14-1,7.4,1.79s-0.57,6.92-2.82,8.33c-0.67,0.42,1.46-3.82,0.2-6.61
		C365.57,27.4,361.39,27.11,362.06,26.69z"/>
	
		<ellipse transform="matrix(0.8406 -0.5417 0.5417 0.8406 46.3287 207.5968)" class="st3" cx="375.89" cy="25.08" rx="8.74" ry="4.58"/>
</g>
<g>
	<path class="st3" d="M78.76,34.9c2.57-1.26,7.04-0.98,8.54,1.43c1.5,2.4-0.54,6.01-3.11,7.27c-0.76,0.37,1.62-3.34,0.12-5.74
		S77.99,35.27,78.76,34.9z"/>
	
		<ellipse transform="matrix(0.9203 -0.3911 0.3911 0.9203 -5.4761 39.6618)" class="st3" cx="94.63" cy="33.27" rx="9.46" ry="4.22"/>
</g>
<g>
	<path class="st3" d="M146.46,24.78c1.74-1.1,4.71-0.73,5.66,1.52c0.95,2.25-0.49,5.53-2.23,6.63c-0.52,0.33,1.15-3.04,0.21-5.29
		C149.15,25.4,145.94,25.11,146.46,24.78z"/>
	
		<ellipse transform="matrix(0.8296 -0.5584 0.5584 0.8296 13.5497 91.7368)" class="st3" cx="157.07" cy="23.67" rx="6.78" ry="3.63"/>
</g>
<g>
	<path class="st3" d="M276.54,182.16c2.31-1.03,6.24-0.68,7.5,1.43s-0.65,5.18-2.96,6.21c-0.69,0.31,1.53-2.84,0.28-4.95
		C280.1,182.73,275.86,182.46,276.54,182.16z"/>
	
		<ellipse transform="matrix(0.9343 -0.3565 0.3565 0.9343 -45.4726 115.493)" class="st3" cx="290.6" cy="181.12" rx="8.35" ry="3.65"/>
</g>
<g>
	<path class="st4" d="M417.3,135.05c0.08,0.87,0.25,1.91,0.79,2.68l-6.35,0.28c0,0-11.22-1.3-15.9-3.21
		c-7.27-2.96-9.57-7.45-12.99-11.43c-4.91-5.71-8.78-5.16-11.05-4.17c-7.34,3.21-14.21,4.02-17.97,1.06
		c-3.09-2.43-1.25-12.85-1.09-13.74c-0.09,0.53-0.58,4.41,3.7,9.73c1.3,1.62,9.16,3.09,14.86,0.54c2.11-0.94,17.91-1.29,18.2,3.24
		c0.26,4.11,0.85,13.65,10.64,12.98c5.79-0.39,12.05,0.41,17.23,1.42C417.31,134.61,417.28,134.82,417.3,135.05z"/>
	<path class="st4" d="M403.33,135.55c-0.37-1.24,0.87-2.01,1.97-1.91l-0.27-7.8c0,0-2.35-9.87-4.85-13.87
		c-3.88-6.22-9.09-7.91-13.81-10.63c-6.78-3.91-6.47-7.39-5.54-9.48c3-6.78,3.36-12.95-0.24-16.05c-3.1-2.67-18.84-3.18-18.84-3.18
		s7.77,2.17,14.56,5.82c1.91,1.03,4.18,7.9,1.78,13.16c-0.89,1.95,1.43,13.33,6.51,13.23c4.62-0.09,13.88,2.36,13.92,11.11
		c0.03,7.62,3.04,15.96,5.11,20.8C403.54,136.35,403.45,135.95,403.33,135.55z"/>
	<path class="st4" d="M397.48,135.9c0.97-0.13,2.15-0.21,3.11,0.08l-1.12-5.58c0,0-3.94-9.45-7.07-13.09
		c-4.86-5.65-10.29-6.64-15.41-8.72c-7.35-2.98-7.61-6.47-7.04-8.66c1.86-7.1,1.2-13.25-2.87-15.85
		c-3.35-2.14-14.32,1.79-15.27,2.14c0.56-0.2,4.69-1.5,11.47,1.03c2.06,0.77,5.43,7.27,3.92,12.79c-0.56,2.05,2.61,15.85,7.62,15.08
		c4.55-0.69,15.11-2.32,16.58,6.33c0.87,5.11,3.15,10.38,5.42,14.65C397,136,397.22,135.93,397.48,135.9z"/>
</g>
<path class="st4" d="M20.12,251.69c0.05,0.88,0.04,1.93-0.38,2.77l6.33-0.67c0,0,10.9-2.95,15.25-5.53c6.75-4,8.36-8.78,11.15-13.23
	c4.01-6.38,7.92-6.4,10.31-5.76c7.74,2.08,14.65,1.87,17.93-1.62c2.69-2.86-0.67-12.89-0.96-13.75c0.17,0.51,1.23,4.27-2.21,10.17
	c-1.05,1.79-8.6,4.41-14.62,2.74c-2.23-0.62-17.9,1.38-17.52,5.9c0.35,4.1,1.18,13.62-8.6,14.42c-5.78,0.47-11.86,2.19-16.83,3.96
	C20.04,251.26,20.1,251.46,20.12,251.69z"/>
<path class="st4" d="M31.01,244.12c0.19-1.28-1.16-1.86-2.23-1.59l-0.89-7.76c0,0,0.86-10.1,2.74-14.44
	c2.92-6.73,7.81-9.17,12.08-12.56c6.12-4.87,5.3-8.27,4.07-10.2c-3.98-6.26-5.25-12.3-2.14-15.91c2.67-3.1,18.16-5.94,18.16-5.94
	s-7.37,3.3-13.54,7.91c-1.74,1.3-2.96,8.43,0.19,13.28c1.17,1.8,0.57,13.4-4.48,14.05c-4.58,0.59-13.38,4.39-12.11,13.05
	c1.1,7.54-0.64,16.24-1.97,21.33C30.91,244.94,30.95,244.53,31.01,244.12z"/>
<path class="st4" d="M36.84,240.59c-0.98,0.02-2.16,0.11-3.06,0.54l0.28-5.69c0,0,2.5-9.93,5.05-14c3.97-6.31,9.19-8.09,13.94-10.91
	c6.82-4.04,6.56-7.53,5.67-9.61c-2.89-6.74-3.16-12.92,0.49-16.1c2.99-2.61,14.43-0.35,15.42-0.15c-0.59-0.12-4.86-0.78-11.19,2.72
	c-1.92,1.06-4.29,7.99-1.98,13.23c0.86,1.94-0.23,16.06-5.3,16.05c-4.6-0.01-15.29-0.06-15.46,8.72c-0.1,5.19-1.58,10.73-3.19,15.29
	C37.33,240.62,37.1,240.58,36.84,240.59z"/>
<g>
	<path class="st3" d="M108.54,16.01c1.74-1.1,4.71-0.73,5.66,1.52c0.95,2.25-0.49,5.53-2.23,6.63c-0.52,0.33,1.15-3.04,0.21-5.29
		C111.23,16.62,108.02,16.34,108.54,16.01z"/>
	
		<ellipse transform="matrix(0.8296 -0.5584 0.5584 0.8296 11.9854 69.0687)" class="st3" cx="119.15" cy="14.9" rx="6.78" ry="3.63"/>
</g>
<path class="st5" d="M358.68,256.06l95.26,0.43V0.52L401.78,0c0,0,36.98,80.16-2.78,102.58c-18.61,10.49-13.53,54.51-12.29,78.43
	c0.9,17.5,22.78,38.65-1.41,43.66C354.93,230.95,358.68,256.06,358.68,256.06z"/>
<path class="st5" d="M34.82,256.49L0,258.88V0l47.16,0.13c0,0,5.57,46.46,2.48,54.2c-5.21,13.05-23.5,13.38-25.08,31.66
	c-1.44,16.62,34.34,7.59,35.35,27.09c2.1,40.69-43.8,54.94-44.4,75.99c-0.48,16.85,21.12,8.07,21.12,26.72
	C36.62,247.19,34.82,256.49,34.82,256.49z"/>
</svg>
