<?xml version="1.0" encoding="utf-8"?>
<!-- Generator: Adobe Illustrator 23.0.3, SVG Export Plug-In . SVG Version: 6.00 Build 0)  -->
<svg version="1.1" xmlns="http://www.w3.org/2000/svg" xmlns:xlink="http://www.w3.org/1999/xlink" x="0px" y="0px"
	 viewBox="0 0 453.54 255.12" style="enable-background:new 0 0 453.54 255.12;" xml:space="preserve">
<style type="text/css">
	.st0{fill:#092F42;}
	.st1{fill:#348C93;}
	.st2{fill:#95A35B;}
	.st3{fill:#56B78B;}
	.st4{fill:#186578;}
</style>
<g id="Шар_1">
	<rect class="st0" width="453.54" height="255.12"/>
</g>
<g id="Шар_4">
	<path class="st1" d="M422.09,226.09c0,0-130.38,15.52-176.17,15.04c-33.56-0.35-107.86-18.71-140.57-19.15
		c-25.05-0.33-99.77,4.11-99.77,4.11v30.01h416.51V226.09z"/>
</g>
<g id="Шар_2">
	<path class="st2" d="M105.74,219.47c3.32-10.32,8.01-20.09,11.98-30.16c-2.87-1.72-6-2.82-9.29-3.17c0.05,0.38,0.01,0.81-0.16,1.27
		l-0.23,0.62c-1.64,11.6-3.26,23.21-5.03,34.8c-0.42,2.74-4.18,3.2-4.52,0.39c-1.32-10.8,0.21-22.74-4.31-32.58
		c-0.19-0.42-0.25-0.82-0.22-1.19c-4.53,2.65-8.58,6.7-11.87,11.76c3.76,7.29,8.16,14.11,12.56,20.95c1.61,2.5-1.76,5.63-3.62,3.27
		c-4.23-5.38-8.63-10.54-13.68-14.93c-2.46,6.3-3.91,13.43-4.03,20.93l61.78-3.38c0.08-4.64-0.37-9.07-1.25-13.21
		c-5.66,3.37-11.37,6.63-17.29,9.38c-2.74,1.28-4.5-3.01-1.77-4.41c6.54-3.35,10.28-10.41,15.65-15.43
		c-1.75-3.81-3.93-7.16-6.47-9.92c-3.72,9.61-8.22,18.98-14.31,27.14C107.97,223.87,104.87,222.18,105.74,219.47z"/>
	<path class="st2" d="M134.97,235.75c0.52-5.01,2.07-9.82,3.08-14.73c-2.26-0.67-4.58-1.04-6.89-1.05c0.1,0.18,0.14,0.38,0.1,0.6
		l-0.05,0.3c0.85,5.53,1.7,11.05,2.46,16.58c0.18,1.31-2.31,1.7-3.02,0.4c-2.73-5.01-3.71-10.69-8.47-15.09
		c-0.2-0.19-0.31-0.37-0.35-0.55c-2.65,1.46-4.73,3.56-6.13,6.09c3.81,3.24,7.97,6.24,12.14,9.24c1.53,1.1-0.25,2.73-1.92,1.71
		c-3.8-2.32-7.69-4.54-11.89-6.36c-0.61,3.07-0.4,6.49,0.79,10.02l41.68-4.52c-0.73-2.18-1.79-4.24-3.09-6.14
		c-3.3,1.85-6.66,3.65-10.24,5.23c-1.66,0.73-3.59-1.2-1.96-1.99c3.9-1.88,5.27-5.37,8.09-7.99c-1.84-1.71-3.9-3.18-6.1-4.35
		c-0.91,4.69-2.41,9.3-5.19,13.43C137.24,237.71,134.83,237.06,134.97,235.75z"/>
	<path class="st2" d="M163.1,249.22c5.94-11.37,12.97-22.06,19.43-33.11c-2.16-2.07-4.73-3.45-7.67-3.99
		c-0.06,0.43-0.22,0.9-0.5,1.41l-0.38,0.68c-4.74,12.89-9.47,25.77-14.32,38.64c-1.15,3.04-4.74,3.38-4.27,0.22
		c1.8-12.14,6.53-25.4,5.11-36.61c-0.06-0.47,0-0.92,0.13-1.34c-4.91,2.74-9.77,7.07-14.2,12.56c1.43,8.33,3.58,16.17,5.73,24.02
		c0.79,2.87-3.19,6.2-4.24,3.48c-2.39-6.21-5.01-12.2-8.44-17.35c-4.02,6.92-7.34,14.81-9.55,23.19l57.81-0.76
		c1.36-5.18,2.18-10.15,2.53-14.82c-6.15,3.49-12.32,6.85-18.53,9.64c-2.88,1.29-3.31-3.58-0.4-5.01
		c6.95-3.42,12.36-11.12,18.7-16.47c-0.55-4.34-1.63-8.2-3.19-11.4c-6.1,10.55-12.86,20.8-20.74,29.62
		C163.93,254.25,161.55,252.2,163.1,249.22z"/>
	<path class="st2" d="M229.04,240.88c0.18-6.12,1.72-12.08,2.54-18.13c-3.02-0.64-6.1-0.91-9.13-0.74c0.15,0.21,0.22,0.45,0.2,0.73
		l-0.04,0.37c1.67,6.65,3.35,13.29,4.91,19.95c0.37,1.57-2.86,2.24-3.92,0.72c-4.08-5.88-5.94-12.7-12.62-17.68
		c-0.28-0.21-0.44-0.43-0.52-0.64c-3.32,1.97-5.83,4.68-7.4,7.86c5.32,3.65,11.07,6.97,16.84,10.3c2.11,1.22-0.05,3.33-2.34,2.22
		c-5.22-2.53-10.53-4.92-16.21-6.82c-0.49,3.78,0.14,7.92,2.05,12.11l54.11-8.68c-1.18-2.59-2.78-5.01-4.67-7.22
		c-4.13,2.5-8.34,4.94-12.87,7.13c-2.1,1.01-4.82-1.18-2.76-2.26c4.92-2.58,6.35-6.93,9.78-10.32c-2.59-1.93-5.43-3.56-8.43-4.82
		c-0.72,5.76-2.21,11.48-5.43,16.7C232.22,243.09,229,242.49,229.04,240.88z"/>
	<path class="st2" d="M289.44,246.85c3.06-5.69,7.44-10.51,11.13-15.79c-2.79-2.21-5.81-4.1-8.99-5.55
		c0.05,0.27,0.02,0.54-0.14,0.79l-0.21,0.33c-1.42,7.17-2.83,14.35-4.37,21.47c-0.36,1.68-3.98,0.61-4.34-1.4
		c-1.41-7.72-0.1-15.16-4.58-23.42c-0.19-0.35-0.25-0.64-0.23-0.88c-4.32,0.11-8.17,1.33-11.27,3.5
		c3.72,6.27,8.04,12.47,12.37,18.67c1.58,2.27-1.62,3.12-3.44,0.86c-4.14-5.16-8.45-10.24-13.37-15.05
		c-2.28,3.31-3.58,7.56-3.6,12.54l59.42,20.52c0.01-3.08-0.48-6.21-1.38-9.31c-5.4,0.17-10.86,0.24-16.52-0.09
		c-2.63-0.16-4.37-3.68-1.76-3.61c6.25,0.17,9.76-3.18,14.85-4.57c-1.74-3.2-3.88-6.25-6.36-9.03c-3.45,5.07-7.66,9.69-13.42,12.91
		C291.64,250.62,288.64,248.34,289.44,246.85z"/>
	<path class="st2" d="M191.33,235.66c1.98-3.93,4.59-7.48,6.87-11.23c-1.28-1.02-2.71-1.81-4.24-2.3c0.01,0.16-0.03,0.34-0.13,0.51
		l-0.13,0.23c-1.25,4.64-2.48,9.28-3.78,13.89c-0.31,1.09-2.1,0.88-2.14-0.32c-0.18-4.62,1.03-9.41-0.7-13.97
		c-0.07-0.19-0.08-0.36-0.05-0.52c-2.24,0.62-4.31,1.86-6.06,3.61c1.47,3.42,3.26,6.72,5.05,10.03c0.66,1.21-1.06,2.15-1.83,0.97
		c-1.77-2.68-3.63-5.29-5.83-7.65c-1.41,2.35-2.39,5.15-2.75,8.25l29.19,5.18c0.23-1.91,0.2-3.8-0.05-5.61
		c-2.8,0.8-5.62,1.53-8.52,2.05c-1.34,0.24-1.99-1.73-0.65-2.02c3.21-0.69,5.26-3.22,7.99-4.73c-0.67-1.77-1.56-3.39-2.64-4.8
		c-2.14,3.59-4.64,6.99-7.84,9.73C192.2,237.72,190.81,236.69,191.33,235.66z"/>
	<path class="st2" d="M317.68,232.99c0.52-5.01,2.07-9.82,3.08-14.73c-2.26-0.67-4.58-1.04-6.89-1.05c0.1,0.18,0.14,0.38,0.1,0.6
		l-0.05,0.3c0.85,5.53,1.7,11.05,2.46,16.58c0.18,1.31-2.31,1.7-3.02,0.4c-2.73-5.01-3.71-10.69-8.47-15.09
		c-0.2-0.19-0.31-0.37-0.35-0.55c-2.65,1.46-4.73,3.56-6.13,6.09c3.81,3.24,7.97,6.24,12.14,9.24c1.53,1.1-0.25,2.73-1.92,1.71
		c-3.8-2.32-7.69-4.54-11.89-6.36c-0.61,3.07-0.4,6.49,0.79,10.02l41.68-4.52c-0.73-2.18-1.79-4.24-3.09-6.14
		c-3.3,1.85-6.66,3.65-10.24,5.23c-1.66,0.73-3.59-1.2-1.96-1.99c3.9-1.88,5.27-5.38,8.09-7.99c-1.84-1.71-3.9-3.18-6.1-4.35
		c-0.91,4.69-2.41,9.3-5.19,13.43C319.95,234.95,317.54,234.3,317.68,232.99z"/>
	<g>
		<path class="st3" d="M90.95,31.84c0,0-15.76,0.09-19.08,2.85c-3.87,3.22-4.05,9.82-1.64,17.15c0.74,2.26,0.75,6-6.35,9.97
			c-4.95,2.77-10.29,4.42-14.71,10.96c-2.84,4.21-6.05,14.68-6.05,14.68l-1.82,16.04c0,0,8.12-14.02,9.17-26.43
			c0.8-9.35,10.25-11.7,14.85-11.47c5.07,0.26,8.37-11.83,7.65-13.95c-1.93-5.7,0.93-12.97,2.93-14.02
			C83.01,33.93,90.95,31.84,90.95,31.84z"/>
		<path class="st3" d="M99.75,46.69c0,0-11.44-5.05-15.12-2.76c-4.3,2.66-5.48,9.21-4.24,16.85c0.38,2.36-0.18,6.08-7.77,9.05
			c-5.29,2.07-10.79,2.97-16.13,8.87c-3.44,3.8-8.2,13.78-8.2,13.78l-4.26,15.72c0,0,10.13-12.83,13.08-25.04
			c2.22-9.21,12.62-7.16,17.1-6.28c4.94,0.96,9.3-13.69,8.92-15.9c-1.02-5.95,2.91-12.79,5.03-13.55
			C95.68,44.72,99.75,46.69,99.75,46.69z"/>
		<path class="st3" d="M24.75,102.78c0,0-6.83-13.21-5.62-17.2c1.41-4.65,7.7-7.69,15.84-8.9c2.51-0.37,6.12-2,6.84-9.69
			c0.5-5.36-0.25-10.55,4.12-17.11c2.82-4.23,5.75-12.64,9.42-15.43c3.46-2.62,14.29-2.54,14.29-2.54s-9.05,7.84-15.4,11.37
			C45.59,48.1,43.86,62.8,46.1,66.54c2.47,4.12-7.75,12.19-10.11,12.52c-6.35,0.89-12.12,6.47-12.25,8.6
			C23.29,95.22,24.75,102.78,24.75,102.78z"/>
	</g>
	<path class="st3" d="M402.3,209.54c0,0,3.5-16.41,1.39-20.43c-2.45-4.68-9.26-6.2-17.41-5.19c-2.51,0.31-6.39-0.44-8.89-8.64
		c-1.75-5.71-2.24-11.61-8.01-17.53c-3.72-3.81-13.85-9.27-13.85-9.27l-16.21-5.16c0,0,12.68,11.3,25.31,14.92
		c9.52,2.73,9.8,13.05,8.51,17.78c-1.42,5.22,10.37,11.11,12.72,10.79c6.35-0.85,13.24,3.6,13.87,5.89
		C401.94,200.84,402.3,209.54,402.3,209.54z"/>
	<path class="st3" d="M386.76,231.73c0,0,8.98-9.82,7.94-14.28c-1.22-5.2-7.41-8.56-15.53-9.85c-2.5-0.4-6.06-2.2-6.46-10.81
		c-0.28-6,0.69-11.83-3.43-19.15c-2.65-4.72-11.09-12.8-11.09-12.8l-14.38-9.49c0,0,9.47,14.43,20.76,21.44
		c8.52,5.28,2.91,15.05,0.5,19.26c-2.66,4.64,10.62,13.88,12.97,14.23c6.34,0.95,11.89,7.16,11.94,9.55
		C390.13,228.29,386.76,231.73,386.76,231.73z"/>
	<path class="st3" d="M346.82,131.25c0,0,15.26-4.42,19.12-2.36c4.5,2.41,6.22,9.58,5.62,18.29c-0.19,2.69,0.68,6.77,8.49,9.09
		c5.44,1.61,10.99,1.88,16.8,7.77c3.74,3.79,11.8,8.55,13.85,12.94c1.93,4.13-0.62,15.39-0.62,15.39s-6.06-11.01-8.28-18.33
		c-3.02-9.99-17.87-14.78-22.26-13.2c-4.84,1.74-10.87-10.54-10.68-13.06c0.53-6.79-3.95-13.92-6.13-14.49
		C355,131.26,346.82,131.25,346.82,131.25z"/>
	<path class="st3" d="M377.26,135.66c0,0,15.2-3.92,19.07-1.98c4.51,2.26,6.3,8.89,5.77,16.91c-0.16,2.47,0.74,6.25,8.56,8.46
		c5.45,1.54,10.99,1.84,16.85,7.32c3.77,3.53,11.86,7.99,13.95,12.06c1.96,3.82-0.49,14.17-0.49,14.17s-6.15-10.2-8.43-16.97
		c-3.11-9.23-17.98-13.8-22.35-12.39c-4.82,1.55-10.96-9.83-10.78-12.14c0.47-6.25-4.07-12.87-6.25-13.41
		C385.43,135.75,377.26,135.66,377.26,135.66z"/>
	<path class="st4" d="M343.42,255.66l110.45-0.57V0.32l-89.83-0.6c0,0,11.32,26.37,16.85,37.8c4.93,10.2,48.67,9.98,47.48,25.72
		c-1.72,22.7-9.72,6.32-25.66,17.7c-4.88,3.49,6.82,40.11,16.24,57.08c6.27,11.29,0.11,48.18-10.61,50.54
		C341.2,203.33,343.42,255.66,343.42,255.66z"/>
	<path class="st4" d="M101.97,254.97l-102.29-0.75V-0.55l114.68,1.27c0,0-8.51,19.23-77.13,27.84c-4.84,0.61-4.47,12.43-4.38,38.87
		c0.04,10.82,21.29,7.1,25.68,18.93c1.06,2.86,5.32,38.3-13.3,40.38c-22.82,2.55-1.84,71.83,10.36,72.53
		C77.05,200.5,101.97,254.97,101.97,254.97z"/>
</g>
<g id="Шар_3">
</g>
</svg>
