<?xml version="1.0" encoding="utf-8"?>
<!-- Generator: Adobe Illustrator 23.0.3, SVG Export Plug-In . SVG Version: 6.00 Build 0)  -->
<svg version="1.1" id="Шар_1" xmlns="http://www.w3.org/2000/svg" xmlns:xlink="http://www.w3.org/1999/xlink" x="0px" y="0px"
	 viewBox="0 0 169.67 73.27" style="enable-background:new 0 0 169.67 73.27;" xml:space="preserve">
<style type="text/css">
	.st0{fill:#899DB6;}
	.st1{fill:#54647C;}
	.st2{fill:#163649;}
</style>
<g>
	<path class="st0" d="M77.9,35.51c-1.71,4.81-19.61,5.12-25.53,5.37c-6.69,0.28-39.5-6.08-39.01-4.28
		c5.02,18.41,54.97,41.46,87.03,23.56c10.37-5.79,20.51-12.78,20.51-24.65s-6.57-18.65-18.45-18.65S81.88,24.32,77.9,35.51z"/>
	<path class="st1" d="M0,30.37c-0.18-0.18,8.06,7.95,14.43,6.02c6.37-1.94,8.65-13.35,8.65-13.03"/>
	<path class="st1" d="M104.04,57.27c0.02,8.71-12.48,15.98-22.27,16c-2.91,0.01,10.79-7.08,10.77-15.79S104.03,48.56,104.04,57.27z"
		/>
	<path class="st0" d="M169.66,0.02c1.08,1.16-63.72,36.6-63.72,36.6l0.12-2.72C106.06,33.9,168.71-1,169.66,0.02z"/>
	<g>
		<g>
			<path class="st2" d="M109.3,35.46c3.22,0,3.22-5,0-5C106.09,30.46,106.08,35.46,109.3,35.46L109.3,35.46z"/>
		</g>
	</g>
	<g>
		<g>
			<path class="st1" d="M119.66,31.37c-0.83,0.78-1.67,1.55-2.5,2.33c-0.62,0.58-1.79,2.09-2.75,1.63
				c-1.45-0.68-2.72,1.47-1.26,2.16c3.32,1.57,6.14-2.36,8.28-4.36C122.6,32.04,120.83,30.27,119.66,31.37L119.66,31.37z"/>
		</g>
	</g>
	<g>
		<g>
			<path class="st1" d="M83.79,31.83c-0.09,0-0.18,0-0.27,0c-1.31,0-2.56,1.15-2.5,2.5c0.06,1.35,1.1,2.5,2.5,2.5
				c0.09,0,0.18,0,0.27,0c1.31,0,2.56-1.15,2.5-2.5C86.23,32.98,85.19,31.83,83.79,31.83L83.79,31.83z"/>
		</g>
	</g>
	<g>
		<g>
			<path class="st1" d="M87.35,39.09c9.65,0,9.67-15,0-15C77.7,24.09,77.69,39.09,87.35,39.09L87.35,39.09z"/>
		</g>
	</g>
	<g>
		<g>
			<path class="st1" d="M82.96,45.4c9.65,0,9.67-15,0-15C73.31,30.4,73.3,45.4,82.96,45.4L82.96,45.4z"/>
		</g>
	</g>
	<g>
		<g>
			<path class="st1" d="M83.51,37.96c0.09,0,0.18,0,0.27,0c1.28,0,2.63-0.56,3.54-1.46c0.87-0.87,1.52-2.29,1.46-3.54
				c-0.06-1.29-0.48-2.63-1.46-3.54c-0.98-0.9-2.18-1.46-3.54-1.46c-0.09,0-0.18,0-0.27,0c-1.28,0-2.63,0.56-3.54,1.46
				c-0.87,0.87-1.52,2.29-1.46,3.54c0.06,1.29,0.48,2.63,1.46,3.54C80.96,37.4,82.16,37.96,83.51,37.96L83.51,37.96z"/>
		</g>
	</g>
	<g>
		<g>
			<path class="st1" d="M87.94,36.26c1.36-4.17,4.56-7.85,8.68-9.5c2.51-1,4.26-3.34,3.49-6.15c-0.66-2.38-3.63-4.5-6.15-3.49
				c-7.55,3.01-13.14,8.7-15.67,16.48C76.3,39.73,85.95,42.36,87.94,36.26L87.94,36.26z"/>
		</g>
	</g>
	<g>
		<g>
			<path class="st1" d="M97.78,25.61c6.43,0,6.45-10,0-10C91.35,15.61,91.34,25.61,97.78,25.61L97.78,25.61z"/>
		</g>
	</g>
	<g>
		<g>
			<path class="st1" d="M102.99,26.44c6.43,0,6.45-10,0-10C96.56,16.44,96.55,26.44,102.99,26.44L102.99,26.44z"/>
		</g>
	</g>
	<g>
		<g>
			<path class="st1" d="M102.72,25.07c6.43,0,6.45-10,0-10C96.28,15.07,96.27,25.07,102.72,25.07L102.72,25.07z"/>
		</g>
	</g>
	<g>
		<g>
			<path class="st1" d="M106.29,25.61c0.27,0,0.55,0,0.82,0c1.28,0,2.63-0.56,3.54-1.46c0.87-0.87,1.52-2.29,1.46-3.54
				c-0.06-1.29-0.48-2.63-1.46-3.54c-0.98-0.9-2.18-1.46-3.54-1.46c-0.27,0-0.55,0-0.82,0c-1.28,0-2.63,0.56-3.54,1.46
				c-0.87,0.87-1.52,2.29-1.46,3.54c0.06,1.29,0.48,2.63,1.46,3.54C103.73,25.05,104.93,25.61,106.29,25.61L106.29,25.61z"/>
		</g>
	</g>
	<g>
		<g>
			<path class="st1" d="M97.51,31.1c6.43,0,6.45-10,0-10C91.07,21.1,91.06,31.1,97.51,31.1L97.51,31.1z"/>
		</g>
	</g>
	<g>
		<g>
			<path class="st1" d="M93.6,28.02c0,0.09,0,0.18,0,0.27c0,1.28,0.56,2.63,1.46,3.54c0.87,0.87,2.29,1.52,3.54,1.46
				c1.29-0.06,2.63-0.48,3.54-1.46c0.9-0.98,1.46-2.18,1.46-3.54c0-0.09,0-0.18,0-0.27c0-1.28-0.56-2.63-1.46-3.54
				c-0.87-0.87-2.29-1.52-3.54-1.46c-1.29,0.06-2.63,0.48-3.54,1.46C94.17,25.47,93.6,26.67,93.6,28.02L93.6,28.02z"/>
		</g>
	</g>
	<g>
		<g>
			<path class="st1" d="M95.59,24.39c-0.18,0-0.37,0-0.55,0c-1.28,0-2.63,0.56-3.54,1.46c-0.87,0.87-1.52,2.29-1.46,3.54
				c0.06,1.29,0.48,2.63,1.46,3.54c0.98,0.9,2.18,1.46,3.54,1.46c0.18,0,0.37,0,0.55,0c1.28,0,2.63-0.56,3.54-1.46
				c0.87-0.87,1.52-2.29,1.46-3.54c-0.06-1.29-0.48-2.63-1.46-3.54C98.14,24.96,96.94,24.39,95.59,24.39L95.59,24.39z"/>
		</g>
	</g>
	<g>
		<g>
			<path class="st1" d="M83.51,55.25c6.43,0,6.45-10,0-10C77.08,45.25,77.07,55.25,83.51,55.25L83.51,55.25z"/>
		</g>
	</g>
	<g>
		<g>
			<path class="st1" d="M44.61,43.94c0-0.09,0-0.18,0-0.27c0-1.28-0.56-2.63-1.46-3.54c-0.87-0.87-2.29-1.52-3.54-1.46
				c-1.29,0.06-2.63,0.48-3.54,1.46c-0.9,0.98-1.46,2.18-1.46,3.54c0,0.09,0,0.18,0,0.27c0,1.28,0.56,2.63,1.46,3.54
				c0.87,0.87,2.29,1.52,3.54,1.46c1.29-0.06,2.63-0.48,3.54-1.46C44.04,46.49,44.61,45.29,44.61,43.94L44.61,43.94z"/>
		</g>
	</g>
	<g>
		<g>
			<path class="st1" d="M33.57,48.94c6.43,0,6.45-10,0-10C27.14,38.94,27.13,48.94,33.57,48.94L33.57,48.94z"/>
		</g>
	</g>
	<g>
		<g>
			<path class="st1" d="M43.18,49.76c6.43,0,6.45-10,0-10C36.74,39.76,36.73,49.76,43.18,49.76L43.18,49.76z"/>
		</g>
	</g>
	<g>
		<g>
			<path class="st1" d="M45.65,51.41c6.43,0,6.45-10,0-10C39.21,41.41,39.2,51.41,45.65,51.41L45.65,51.41z"/>
		</g>
	</g>
	<g>
		<g>
			<path class="st1" d="M46.41,48.33c0,0.09,0,0.18,0,0.27c0,1.28,0.56,2.63,1.46,3.54c0.87,0.87,2.29,1.52,3.54,1.46
				c1.29-0.06,2.63-0.48,3.54-1.46c0.9-0.98,1.46-2.18,1.46-3.54c0-0.09,0-0.18,0-0.27c0-1.28-0.56-2.63-1.46-3.54
				c-0.87-0.87-2.29-1.52-3.54-1.46c-1.29,0.06-2.63,0.48-3.54,1.46C46.98,45.77,46.41,46.97,46.41,48.33L46.41,48.33z"/>
		</g>
	</g>
	<g>
		<g>
			<path class="st1" d="M55.8,55.52c6.43,0,6.45-10,0-10C49.36,45.52,49.35,55.52,55.8,55.52L55.8,55.52z"/>
		</g>
	</g>
	<g>
		<g>
			<path class="st1" d="M61.56,50.03c6.43,0,6.45-10,0-10C55.13,40.03,55.12,50.03,61.56,50.03L61.56,50.03z"/>
		</g>
	</g>
	<g>
		<g>
			<path class="st1" d="M52.78,40.31c-0.09,0-0.18,0-0.27,0c-1.28,0-2.63,0.56-3.54,1.46c-0.87,0.87-1.52,2.29-1.46,3.54
				c0.06,1.29,0.48,2.63,1.46,3.54c0.98,0.9,2.18,1.46,3.54,1.46c0.09,0,0.18,0,0.27,0c1.28,0,2.63-0.56,3.54-1.46
				c0.87-0.87,1.52-2.29,1.46-3.54c-0.06-1.29-0.48-2.63-1.46-3.54C55.34,40.88,54.14,40.31,52.78,40.31L52.78,40.31z"/>
		</g>
	</g>
	<g>
		<g>
			<path class="st1" d="M66.23,50.31c0.09,0,0.18,0,0.27,0c1.28,0,2.63-0.56,3.54-1.46c0.87-0.87,1.52-2.29,1.46-3.54
				c-0.06-1.29-0.48-2.63-1.46-3.54c-0.98-0.9-2.18-1.46-3.54-1.46c-0.09,0-0.18,0-0.27,0c-1.28,0-2.63,0.56-3.54,1.46
				c-0.87,0.87-1.52,2.29-1.46,3.54c0.06,1.29,0.48,2.63,1.46,3.54C63.67,49.74,64.87,50.31,66.23,50.31L66.23,50.31z"/>
		</g>
	</g>
	<g>
		<g>
			<path class="st1" d="M77.81,43.66c0-0.18,0-0.37,0-0.55c0-1.28-0.56-2.63-1.46-3.54c-0.87-0.87-2.29-1.52-3.54-1.46
				c-1.29,0.06-2.63,0.48-3.54,1.46c-0.9,0.98-1.46,2.18-1.46,3.54c0,0.18,0,0.37,0,0.55c0,1.28,0.56,2.63,1.46,3.54
				c0.87,0.87,2.29,1.52,3.54,1.46c1.29-0.06,2.63-0.48,3.54-1.46C77.24,46.22,77.81,45.02,77.81,43.66L77.81,43.66z"/>
		</g>
	</g>
	<g>
		<g>
			<path class="st1" d="M76.93,47.02c6.43,0,6.45-10,0-10C70.49,37.02,70.48,47.02,76.93,47.02L76.93,47.02z"/>
		</g>
	</g>
	<g>
		<g>
			<path class="st1" d="M65.4,58.24c3.22,0,3.22-5,0-5C62.19,53.24,62.18,58.24,65.4,58.24L65.4,58.24z"/>
		</g>
	</g>
	<g>
		<g>
			<path class="st1" d="M62.38,52.75c3.22,0,3.22-5,0-5C59.17,47.75,59.16,52.75,62.38,52.75L62.38,52.75z"/>
		</g>
	</g>
	<g>
		<g>
			<path class="st1" d="M61.04,46.96c0-0.18,0-0.37,0-0.55c0-1.31-1.15-2.56-2.5-2.5c-1.35,0.06-2.5,1.1-2.5,2.5
				c0,0.18,0,0.37,0,0.55c0,1.31,1.15,2.56,2.5,2.5C59.9,49.39,61.04,48.36,61.04,46.96L61.04,46.96z"/>
		</g>
	</g>
	<g>
		<g>
			<path class="st1" d="M17.28,40.79c12.03,1.88,24.19,3.18,36.37,3.5c9.9,0.25,19.91-0.64,28.52-5.93
				c2.74-1.68,0.23-6.01-2.52-4.32c-8.36,5.13-18.07,5.53-27.62,5.19c-11.19-0.4-22.35-1.54-33.42-3.27
				C15.46,35.47,14.11,40.29,17.28,40.79L17.28,40.79z"/>
		</g>
	</g>
	<g>
		<g>
			<path class="st1" d="M56.35,46.99c0.09,0,0.18,0,0.27,0c1.31,0,2.56-1.15,2.5-2.5c-0.06-1.35-1.1-2.5-2.5-2.5
				c-0.09,0-0.18,0-0.27,0c-1.31,0-2.56,1.15-2.5,2.5C53.91,45.84,54.95,46.99,56.35,46.99L56.35,46.99z"/>
		</g>
	</g>
	<g>
		<g>
			<path class="st1" d="M99.98,43.69c3.22,0,3.22-5,0-5C96.76,38.69,96.75,43.69,99.98,43.69L99.98,43.69z"/>
		</g>
	</g>
	<g>
		<g>
			<path class="st1" d="M101.35,39.03c3.22,0,3.22-5,0-5C98.13,34.03,98.12,39.03,101.35,39.03L101.35,39.03z"/>
		</g>
	</g>
	<g>
		<g>
			<path class="st1" d="M93.94,42.32c3.22,0,3.22-5,0-5C90.72,37.32,90.72,42.32,93.94,42.32L93.94,42.32z"/>
		</g>
	</g>
	<g>
		<g>
			<path class="st1" d="M94.21,47.53c3.22,0,3.22-5,0-5C91,42.53,90.99,47.53,94.21,47.53L94.21,47.53z"/>
		</g>
	</g>
	<g>
		<g>
			<path class="st1" d="M81.81,35.82c0.93-3,3.58-5.04,5.93-6.94c2.32-1.88-0.63-5.12-3.03-3.93c-1.05,0.52-1.56,1.33-1.98,2.4
				c-0.49,1.26,0.54,2.74,1.75,3.08c1.42,0.39,2.58-0.48,3.08-1.75c0.05-0.13,0.1-0.26,0.16-0.4c-0.21,0.37-0.43,0.74-0.64,1.1
				c0.06-0.04,0.11-0.08,0.17-0.11c-1.01-1.31-2.02-2.62-3.03-3.93c-3.1,2.51-6.01,5.22-7.22,9.15
				C76.04,37.58,80.87,38.89,81.81,35.82L81.81,35.82z"/>
		</g>
	</g>
	<g>
		<g>
			<path class="st1" d="M85.4,30.32c4.01-5.53,14.06-12.87,21.05-8.43c2.72,1.73,5.23-2.59,2.52-4.32
				C99.41,11.5,86.7,20.05,81.08,27.8C79.19,30.4,83.52,32.9,85.4,30.32L85.4,30.32z"/>
		</g>
	</g>
	<g>
		<g>
			<path class="st1" d="M14.47,38.95c2.53,1.08,5.1,1.96,7.79,2.57c2.35,0.53,3.35-3.08,1-3.62c-2.36-0.54-4.67-1.24-6.9-2.19
				c-0.94-0.4-2-0.27-2.57,0.67C13.33,37.17,13.54,38.55,14.47,38.95L14.47,38.95z"/>
		</g>
	</g>
	<g>
		<g>
			<path class="st1" d="M26.62,42.15c0,0.05,0,0.09,0,0.14c0,0.98,0.86,1.92,1.88,1.88c1.02-0.05,1.88-0.82,1.88-1.88
				c0-0.05,0-0.09,0-0.14c0-0.98-0.86-1.92-1.88-1.88C27.48,40.32,26.62,41.1,26.62,42.15L26.62,42.15z"/>
		</g>
	</g>
	<g>
		<g>
			<path class="st1" d="M23.83,39.87c-0.09,0-0.18,0-0.27,0c-0.98,0-1.92,0.86-1.88,1.88c0.05,1.02,0.82,1.88,1.88,1.88
				c0.09,0,0.18,0,0.27,0c0.98,0,1.92-0.86,1.88-1.88C25.66,40.73,24.88,39.87,23.83,39.87L23.83,39.87z"/>
		</g>
	</g>
	<g>
		<g>
			<path class="st1" d="M20.68,43.07c2.41,0,2.42-3.75,0-3.75C18.26,39.32,18.26,43.07,20.68,43.07L20.68,43.07z"/>
		</g>
	</g>
	<g>
		<g>
			<path class="st1" d="M24.02,42.43c0,0.09,0,0.18,0,0.27c0,0.98,0.86,1.92,1.88,1.88c1.02-0.05,1.88-0.82,1.88-1.88
				c0-0.09,0-0.18,0-0.27c0-0.98-0.86-1.92-1.88-1.88C24.87,40.6,24.02,41.38,24.02,42.43L24.02,42.43z"/>
		</g>
	</g>
	<g>
		<g>
			<path class="st1" d="M35.49,52.12c2.41,0,2.42-3.75,0-3.75C33.08,48.37,33.08,52.12,35.49,52.12L35.49,52.12z"/>
		</g>
	</g>
	<g>
		<g>
			<path class="st1" d="M38.42,51.12c-0.05,0.05-0.09,0.09-0.14,0.14c-0.69,0.69-0.75,1.97,0,2.65c0.75,0.69,1.91,0.74,2.65,0
				c0.05-0.05,0.09-0.09,0.14-0.14c0.69-0.69,0.75-1.97,0-2.65C40.32,50.43,39.16,50.38,38.42,51.12L38.42,51.12z"/>
		</g>
	</g>
	<g>
		<g>
			<path class="st1" d="M40.3,57.2c2.41,0,2.42-3.75,0-3.75C37.88,53.45,37.88,57.2,40.3,57.2L40.3,57.2z"/>
		</g>
	</g>
	<g>
		<g>
			<path class="st1" d="M76.45,51.16c2.41,0,2.42-3.75,0-3.75C74.03,47.41,74.03,51.16,76.45,51.16L76.45,51.16z"/>
		</g>
	</g>
	<g>
		<g>
			<path class="st1" d="M81.18,48.28c2.41,0,2.42-3.75,0-3.75C78.77,44.53,78.76,48.28,81.18,48.28L81.18,48.28z"/>
		</g>
	</g>
</g>
</svg>
