<?xml version="1.0" encoding="utf-8"?>
<!-- Generator: Adobe Illustrator 23.0.3, SVG Export Plug-In . SVG Version: 6.00 Build 0)  -->
<svg version="1.1" id="Шар_1" xmlns="http://www.w3.org/2000/svg" xmlns:xlink="http://www.w3.org/1999/xlink" x="0px" y="0px"
	 viewBox="0 0 289.87 160.33" style="enable-background:new 0 0 289.87 160.33;" xml:space="preserve">
<style type="text/css">
	.st0{fill:#0D5E5C;}
	.st1{fill:#163649;}
	.st2{fill:#798E5E;}
	.st3{fill:#092F42;}
</style>
<g>
	<path class="st0" d="M283.34,38.65c9.52,59.03-28.85,107.31-98.45,107.31S43.93,93.89,31.28,38.65"/>
	<path class="st1" d="M49.74,0.57c5.4,15.79,1.48,39.65-12.23,44.34S5.49,33.33,0.1,17.54c-1.6-4.69,17.07,13.61,30.78,8.93
		S48.14-4.13,49.74,0.57z"/>
	<path class="st1" d="M252.37,125.17c-53.49,36.92-106.57,19.57-150.5-2.48C62.1,102.71,37.54,62.83,33.52,46.63
		C32.93,44.28,84,96.6,118.36,109.51C173.6,130.25,256.46,122.35,252.37,125.17z"/>
	<path class="st0" d="M192.56,157.58c-8.07,3.87-28.01,3.51-28.61-0.2c-1.17-7.31,14.31-24.4,19.09-28.21
		c11.36-9.06,24.29-15.93,28.28-8.79c0.77,1.37-3.9,11.66-7.98,17.35C197.13,146.38,200.83,153.61,192.56,157.58z"/>
	<g>
		<g>
			<path class="st1" d="M281.64,75.44c-5.69-0.92-11.39-1.2-17.13-0.54c-3.58,0.41-8.01,0.78-10.96,3.11
				c-0.82,0.65-1.55,1.44-1.97,2.41c-0.52,1.21-0.12,1.13-0.43,2.16c-0.94,3.14-1.37,3.45-3.86,4.15c-2.61,0.73-6.32,0.22-9.06,0.32
				c-3.02,0.11-6.04,0.21-9.06,0.32c-1.6,0.06-1.61,2.56,0,2.5c5.43-0.19,10.87-0.35,16.3-0.57c2.33-0.09,5.39,0.09,7.08-1.85
				c0.78-0.9,0.81-1.66,1.1-2.78c1.05-4.07,2.5-5.71,6.56-6.56c6.84-1.43,13.88-1.35,20.76-0.24
				C282.55,78.1,283.23,75.69,281.64,75.44L281.64,75.44z"/>
		</g>
	</g>
	<g>
		<g>
			<path class="st1" d="M240.85,75.94c0-0.13,0-0.25,0-0.38c0-1.28-0.56-2.63-1.46-3.54c-0.87-0.87-2.29-1.52-3.54-1.46
				c-1.29,0.06-2.63,0.48-3.54,1.46c-0.9,0.98-1.46,2.18-1.46,3.54c0,0.13,0,0.25,0,0.38c0,1.28,0.56,2.63,1.46,3.54
				c0.87,0.87,2.29,1.52,3.54,1.46c1.29-0.06,2.63-0.48,3.54-1.46C240.28,78.5,240.85,77.3,240.85,75.94L240.85,75.94z"/>
		</g>
	</g>
	<g>
		<g>
			<path class="st2" d="M221.44,72.07c9.65,0,9.67-15,0-15C211.79,57.07,211.77,72.07,221.44,72.07L221.44,72.07z"/>
		</g>
	</g>
	<g>
		<g>
			<path class="st2" d="M231.73,55.51c0-0.25,0-0.5,0-0.76c0-1.28-0.56-2.63-1.46-3.54c-0.87-0.87-2.29-1.52-3.54-1.46
				c-1.29,0.06-2.63,0.48-3.54,1.46c-0.9,0.98-1.46,2.18-1.46,3.54c0,0.25,0,0.5,0,0.76c0,1.28,0.56,2.63,1.46,3.54
				c0.87,0.87,2.29,1.52,3.54,1.46c1.29-0.06,2.63-0.48,3.54-1.46C231.16,58.07,231.73,56.87,231.73,55.51L231.73,55.51z"/>
		</g>
	</g>
	<g>
		<g>
			<path class="st2" d="M212.38,72.6c0.25,0,0.5,0,0.76,0c1.28,0,2.63-0.56,3.54-1.46c0.87-0.87,1.52-2.29,1.46-3.54
				c-0.06-1.29-0.48-2.63-1.46-3.54c-0.98-0.9-2.18-1.46-3.54-1.46c-0.25,0-0.5,0-0.76,0c-1.28,0-2.63,0.56-3.54,1.46
				c-0.87,0.87-1.52,2.29-1.46,3.54c0.06,1.29,0.48,2.63,1.46,3.54C209.82,72.03,211.02,72.6,212.38,72.6L212.38,72.6z"/>
		</g>
	</g>
	<g>
		<g>
			<path class="st2" d="M221.44,77.88c0.25,0,0.5,0,0.76,0c1.28,0,2.63-0.56,3.54-1.46c0.87-0.87,1.52-2.29,1.46-3.54
				c-0.06-1.29-0.48-2.63-1.46-3.54c-0.98-0.9-2.18-1.46-3.54-1.46c-0.25,0-0.5,0-0.76,0c-1.28,0-2.63,0.56-3.54,1.46
				c-0.87,0.87-1.52,2.29-1.46,3.54c0.06,1.29,0.48,2.63,1.46,3.54C218.88,77.31,220.09,77.88,221.44,77.88L221.44,77.88z"/>
		</g>
	</g>
	<g>
		<g>
			<path class="st2" d="M278.93,37.4c-0.02,0.01-0.04,0.02-0.07,0.03c0.84-0.23,1.68-0.46,2.52-0.68c-0.02,0-0.04,0-0.06,0.01
				c0.44,0.06,0.89,0.12,1.33,0.18c-0.02,0-0.03-0.01-0.05-0.01c0.74,0.43,1.47,0.86,2.21,1.29c-0.01-0.01-0.03-0.02-0.04-0.03
				c0.26,0.34,0.52,0.67,0.78,1.01c-0.03-0.03-0.04-0.06-0.06-0.1c0.17,0.4,0.34,0.8,0.5,1.19c-0.01-0.02-0.01-0.04-0.02-0.06
				c0.06,0.44,0.12,0.89,0.18,1.33c-0.01-0.07-0.01-0.13,0-0.21c-0.06,0.44-0.12,0.89-0.18,1.33c0.01-0.02,0.01-0.04,0.02-0.06
				c-0.17,0.4-0.34,0.8-0.5,1.19c0.01-0.04,0.03-0.07,0.06-0.1c-0.6,0.6-1.2,1.2-1.79,1.79c0.01-0.01,0.03-0.02,0.04-0.03
				c-0.4,0.17-0.8,0.34-1.19,0.5c0.02,0,0.03-0.01,0.05-0.01c-0.44,0.06-0.89,0.12-1.33,0.18c0.02,0,0.04,0,0.06,0.01
				c-0.84-0.23-1.68-0.46-2.52-0.68c0.02,0.01,0.04,0.02,0.06,0.03c1.24,0.59,2.49,0.88,3.85,0.5c1.16-0.32,2.42-1.22,2.99-2.3
				c0.61-1.16,0.92-2.57,0.5-3.85c-0.38-1.18-1.14-2.44-2.3-2.99c-0.83-0.39-1.71-0.73-2.64-0.72c-0.89,0-1.85,0.27-2.61,0.73
				c-1.59,0.96-2.56,2.73-2.56,4.58c0,1.4,0.56,2.83,1.56,3.82c0.81,0.8,1.83,1.26,2.94,1.41c0.86,0.12,0.52,0.11,1.39-0.01
				c0.45,0,0.87-0.12,1.26-0.34c0.22-0.09,0.44-0.18,0.66-0.28c1.07-0.48,2-1.9,2.3-2.99c0.33-1.2,0.18-2.79-0.5-3.85
				c-0.69-1.07-1.71-2.01-2.99-2.3c-0.44-0.06-0.89-0.12-1.33-0.18C280.55,36.72,279.71,36.95,278.93,37.4L278.93,37.4z"/>
		</g>
	</g>
	<g>
		<g>
			<path class="st2" d="M268.55,38.22c-0.25,0.25-0.5,0.5-0.76,0.76c-0.91,0.91-1.46,2.25-1.46,3.54c0,1.23,0.54,2.69,1.46,3.54
				c0.95,0.87,2.2,1.52,3.54,1.46c1.33-0.06,2.58-0.51,3.54-1.46c0.25-0.25,0.5-0.5,0.76-0.76c0.91-0.91,1.46-2.25,1.46-3.54
				c0-1.23-0.54-2.69-1.46-3.54c-0.95-0.87-2.2-1.52-3.54-1.46C270.76,36.81,269.5,37.26,268.55,38.22L268.55,38.22z"/>
		</g>
	</g>
	<g>
		<g>
			<path class="st2" d="M285.34,52.49c0-0.25,0-0.5,0-0.76c0-1.28-0.56-2.63-1.46-3.54c-0.87-0.87-2.29-1.52-3.54-1.46
				c-1.29,0.06-2.63,0.48-3.54,1.46c-0.9,0.98-1.46,2.18-1.46,3.54c0,0.25,0,0.5,0,0.76c0,1.28,0.56,2.63,1.46,3.54
				c0.87,0.87,2.29,1.52,3.54,1.46c1.29-0.06,2.63-0.48,3.54-1.46C284.78,55.05,285.34,53.85,285.34,52.49L285.34,52.49z"/>
		</g>
	</g>
	<g>
		<g>
			<path class="st2" d="M281.34,46.69c-0.25,0.25-0.5,0.5-0.76,0.76c-0.91,0.91-1.46,2.25-1.46,3.54c0,1.23,0.54,2.69,1.46,3.54
				c0.95,0.87,2.2,1.52,3.54,1.46c1.33-0.06,2.58-0.51,3.54-1.46c0.25-0.25,0.5-0.5,0.76-0.76c0.91-0.91,1.46-2.25,1.46-3.54
				c0-1.23-0.54-2.69-1.46-3.54c-0.95-0.87-2.2-1.52-3.54-1.46C283.55,45.29,282.3,45.73,281.34,46.69L281.34,46.69z"/>
		</g>
	</g>
	<g>
		<g>
			<path class="st2" d="M275.62,100.61c6.43,0,6.45-10,0-10C269.19,90.61,269.18,100.61,275.62,100.61L275.62,100.61z"/>
		</g>
	</g>
	<g>
		<g>
			<path class="st2" d="M246.74,120.69c3.22,0,3.22-5,0-5C243.52,115.69,243.52,120.69,246.74,120.69L246.74,120.69z"/>
		</g>
	</g>
	<g>
		<g>
			<path class="st2" d="M250.7,120.69c3.22,0,3.22-5,0-5C247.49,115.69,247.48,120.69,250.7,120.69L250.7,120.69z"/>
		</g>
	</g>
	<g>
		<g>
			<path class="st2" d="M253.53,116.16c0.19,0,0.38,0,0.57,0c1.31,0,2.56-1.15,2.5-2.5c-0.06-1.35-1.1-2.5-2.5-2.5
				c-0.19,0-0.38,0-0.57,0c-1.31,0-2.56,1.15-2.5,2.5C251.1,115.01,252.13,116.16,253.53,116.16L253.53,116.16z"/>
		</g>
	</g>
	<g>
		<g>
			<path class="st2" d="M254.83,118.15c0.38-0.19,0.75-0.38,1.13-0.57c1.17-0.59,1.6-2.33,0.9-3.42c-0.77-1.19-2.17-1.53-3.42-0.9
				c-0.38,0.19-0.75,0.38-1.13,0.57c-1.17,0.59-1.6,2.33-0.9,3.42C252.18,118.44,253.58,118.78,254.83,118.15L254.83,118.15z"/>
		</g>
	</g>
	<g>
		<g>
			<path class="st2" d="M261.7,114.23c0-0.19,0-0.38,0-0.57c0-1.31-1.15-2.56-2.5-2.5c-1.35,0.06-2.5,1.1-2.5,2.5
				c0,0.19,0,0.38,0,0.57c0,1.31,1.15,2.56,2.5,2.5C260.55,116.67,261.7,115.63,261.7,114.23L261.7,114.23z"/>
		</g>
	</g>
	<g>
		<g>
			<path class="st2" d="M265.5,94.78c-0.03,0.05-0.05,0.1-0.08,0.15c0.3-0.3,0.6-0.6,0.9-0.9c0.1-0.05,0.19-0.09,0.29-0.14
				c0.44,0,0.89,0,1.33,0c0.1,0.04,0.19,0.09,0.29,0.13c0.3,0.3,0.6,0.6,0.9,0.9c-0.02-0.05-0.05-0.1-0.07-0.15
				c0.11,0.42,0.23,0.84,0.34,1.26c0.01-0.06,0.01-0.11,0.02-0.17c-0.11,0.42-0.23,0.84-0.34,1.26c0.03-0.04,0.06-0.09,0.1-0.13
				c-0.3,0.3-0.6,0.6-0.9,0.9c-0.09,0.04-0.19,0.08-0.28,0.13c-0.44,0-0.89,0-1.33,0c0.05,0.01,0.11,0.02,0.16,0.03
				c-0.37-0.21-0.74-0.43-1.1-0.64c1.33,1.17,3.63,1.09,5.33,1.33c1.34,0.19,2.69-0.33,3.08-1.75c0.32-1.17-0.4-2.89-1.75-3.08
				c-1.37-0.19-2.73-0.39-4.1-0.58c0.37,0.21,0.74,0.43,1.1,0.64c-0.99-0.87-2.28-1.16-3.49-0.5c-1.05,0.58-1.61,1.7-1.46,2.88
				c0.34,2.67,4.14,3.3,5.39,0.94c0.63-1.19,0.3-2.72-0.9-3.42C267.79,93.23,266.13,93.58,265.5,94.78L265.5,94.78z"/>
		</g>
	</g>
	<g>
		<g>
			<path class="st3" d="M64.37,85.08c1.61,0,1.61-2.5,0-2.5C62.76,82.58,62.76,85.08,64.37,85.08L64.37,85.08z"/>
		</g>
	</g>
</g>
</svg>
